<?xml version="1.0" encoding="UTF-8"?>
<svg xmlns="http://www.w3.org/2000/svg" xmlns:xlink="http://www.w3.org/1999/xlink" width="800px" height="100px" viewBox="0 0 800 100" version="1.1">
<g id="surface1">
<path style=" stroke:none;fill-rule:nonzero;fill:rgb(0%,0%,0%);fill-opacity:1;" d="M 82.339844 66.261719 C 73.375 68.140625 64.746094 69.078125 56.457031 69.078125 C 48.167969 69.078125 39.78125 68.140625 31.296875 66.261719 L 32.816406 59.175781 C 41.78125 61.296875 50.238281 62.355469 58.191406 62.355469 C 63.6875 62.355469 69.785156 61.777344 76.480469 60.621094 L 77.855469 54.042969 L 33.902344 54.042969 L 37.949219 34.957031 C 46.960938 33.078125 55.613281 32.136719 63.902344 32.136719 C 72.195312 32.136719 80.554688 33.078125 88.988281 34.957031 L 87.472656 42.042969 C 78.554688 39.96875 70.121094 38.933594 62.167969 38.933594 C 56.675781 38.933594 50.578125 39.488281 43.878906 40.59375 L 42.503906 46.957031 L 86.460938 46.957031 Z M 107.316406 46.8125 L 122.210938 46.8125 C 130.789062 46.8125 138.136719 46.59375 144.257812 46.164062 L 145.414062 40.667969 C 139.003906 39.511719 132.859375 38.933594 126.980469 38.933594 C 121.484375 38.933594 115.390625 39.488281 108.691406 40.59375 Z M 89.890625 46.8125 L 100.230469 46.8125 L 102.761719 34.957031 C 111.773438 33.078125 120.425781 32.136719 128.714844 32.136719 C 137.003906 32.136719 145.367188 33.078125 153.800781 34.957031 L 152.285156 42.042969 L 152.210938 42.042969 L 150.042969 52.234375 C 139.871094 53.34375 130.113281 53.898438 120.761719 53.898438 L 105.871094 53.898438 L 102.617188 69.007812 L 95.53125 69.007812 L 98.785156 53.898438 L 88.445312 53.898438 Z M 170.191406 32.136719 L 177.277344 32.136719 L 169.394531 69.007812 L 162.3125 69.007812 Z M 233.074219 60.546875 L 237.269531 40.667969 C 230.859375 39.511719 224.691406 38.933594 218.761719 38.933594 C 217.554688 38.933594 213.386719 38.835938 206.253906 38.644531 L 200.90625 38.5 L 195.84375 62.140625 L 188.761719 62.140625 L 214.785156 62.210938 C 220.28125 62.210938 226.378906 61.65625 233.074219 60.546875 Z M 238.933594 66.1875 C 229.96875 68.066406 221.339844 69.007812 213.050781 69.007812 L 187.3125 69.007812 L 195.195312 32.136719 L 220.496094 32.136719 C 228.789062 32.136719 237.148438 33.078125 245.582031 34.957031 Z M 251.828125 46.8125 L 265.347656 46.8125 L 267.300781 37.632812 L 267.371094 37.632812 L 268.3125 33.367188 C 275.734375 32.546875 284.941406 32.136719 295.929688 32.136719 C 306.4375 32.136719 315.113281 32.570312 321.957031 33.4375 L 320.4375 40.59375 C 311.136719 39.339844 301.691406 38.714844 292.097656 38.714844 C 285.542969 38.714844 279.492188 39.027344 273.953125 39.65625 L 272.433594 46.8125 L 307.496094 46.8125 L 306.050781 53.898438 L 270.988281 53.898438 L 269.398438 61.125 C 274.84375 61.753906 280.820312 62.066406 287.324219 62.066406 C 296.917969 62.066406 306.460938 61.4375 315.953125 60.1875 L 314.4375 67.34375 C 307.207031 68.453125 298.410156 69.007812 288.050781 69.007812 C 277.203125 69.007812 268.214844 68.453125 261.082031 67.34375 L 262.167969 62.355469 L 262.09375 62.355469 L 263.902344 53.898438 L 250.382812 53.898438 Z M 379.800781 52.019531 C 381.828125 52.933594 383.34375 53.824219 384.355469 54.691406 L 381.320312 69.007812 L 374.234375 69.007812 L 376.621094 57.945312 C 371.269531 55.441406 364.859375 54.140625 357.390625 54.042969 L 340.6875 53.824219 L 337.4375 69.007812 L 330.351562 69.007812 L 337.582031 34.957031 C 346.59375 33.078125 355.246094 32.136719 363.535156 32.136719 C 371.824219 32.136719 380.1875 33.078125 388.621094 34.957031 L 387.101562 42.042969 L 387.03125 42.042969 L 385.078125 51.441406 Z M 342.207031 46.742188 L 362.304688 46.8125 C 366.453125 46.8125 372.089844 46.355469 379.222656 45.4375 L 380.234375 40.667969 C 373.824219 39.511719 367.679688 38.933594 361.800781 38.933594 C 356.304688 38.933594 350.207031 39.488281 343.507812 40.59375 Z M 409.613281 46.59375 L 447.570312 46.59375 L 445.039062 52.089844 L 407.085938 52.089844 Z M 496.152344 28.882812 L 503.238281 28.882812 L 502.515625 32.207031 C 509.601562 32.449219 516.734375 33.363281 523.914062 34.957031 L 516.683594 69.152344 L 509.601562 69.152344 L 515.601562 40.667969 C 510.636719 39.753906 505.792969 39.199219 501.070312 39.003906 L 495.429688 65.824219 L 488.34375 65.824219 L 493.984375 39.003906 C 489.359375 39.148438 484.296875 39.679688 478.800781 40.59375 L 472.730469 69.152344 L 465.644531 69.152344 L 472.875 34.957031 C 480.632812 33.316406 488.152344 32.402344 495.429688 32.207031 Z M 548.394531 40.59375 L 547.023438 46.8125 L 583.890625 46.8125 L 585.195312 40.667969 C 578.785156 39.511719 572.613281 38.933594 566.6875 38.933594 C 561.242188 38.933594 555.144531 39.488281 548.394531 40.59375 Z M 586.277344 69.007812 L 579.191406 69.007812 L 582.375 54.042969 L 545.503906 54.042969 L 542.324219 69.007812 L 535.238281 69.007812 L 542.46875 34.957031 C 551.480469 33.078125 560.132812 32.136719 568.421875 32.136719 C 576.710938 32.136719 585.074219 33.078125 593.507812 34.957031 Z M 620.007812 34.957031 C 622.511719 34.425781 624.996094 33.96875 627.453125 33.582031 C 627.550781 33.582031 627.597656 33.628906 627.597656 33.726562 C 627.597656 33.917969 627.539062 34.21875 627.417969 34.628906 C 627.296875 35.042969 627.238281 35.34375 627.238281 35.535156 C 627.238281 35.632812 627.261719 35.679688 627.308594 35.679688 C 627.644531 34.957031 628.054688 34.234375 628.539062 33.511719 C 635.042969 32.59375 640.851562 32.136719 645.960938 32.136719 C 654.25 32.136719 662.613281 33.078125 671.046875 34.957031 L 663.816406 69.152344 L 656.734375 69.152344 L 662.734375 40.667969 C 656.324219 39.511719 650.152344 38.933594 644.226562 38.933594 C 638.730469 38.933594 632.632812 39.488281 625.933594 40.59375 L 619.863281 69.152344 L 612.777344 69.152344 Z M 718.066406 46.957031 L 762.019531 46.957031 L 763.394531 40.59375 C 757.128906 39.488281 751.273438 38.933594 745.828125 38.933594 C 737.875 38.933594 728.957031 39.96875 719.074219 42.042969 L 720.597656 34.957031 C 729.898438 33.078125 738.691406 32.136719 746.984375 32.136719 C 755.273438 32.136719 763.492188 33.078125 771.636719 34.957031 L 767.585938 54.042969 L 723.632812 54.042969 L 722.257812 60.621094 C 728.472656 61.777344 734.332031 62.355469 739.824219 62.355469 C 747.777344 62.355469 756.671875 61.296875 766.503906 59.175781 L 764.984375 66.261719 C 755.730469 68.140625 746.960938 69.078125 738.667969 69.078125 C 730.378906 69.078125 722.136719 68.140625 713.945312 66.261719 Z M 718.066406 46.957031 "/>
</g>
</svg>
