<?xml version="1.0" encoding="UTF-8" standalone="no"?>
<!DOCTYPE svg PUBLIC "-//W3C//DTD SVG 1.0//EN" "http://www.w3.org/TR/2001/REC-SVG-20010904/DTD/svg10.dtd">
<!-- Created with Inkscape (http://www.inkscape.org/) -->
<svg
   xmlns:svg="http://www.w3.org/2000/svg"
   xmlns="http://www.w3.org/2000/svg"
   version="1.0"
   width="800"
   height="100"
   id="svg2">
  <defs
     id="defs4" />
  <g
     id="layer1">
    <path
       d="M 82.339862,66.260134 C 73.374927,68.139902 64.747619,69.07978 56.457911,69.079769 C 48.168125,69.07978 39.781302,68.139902 31.297415,66.260134 L 32.817547,59.175747 C 41.780931,61.296743 50.239091,62.35723 58.192052,62.357212 C 63.687131,62.35723 69.783831,61.778448 76.48217,60.620865 L 77.856687,54.041717 L 33.900834,54.041717 L 37.94937,34.955129 C 46.962758,33.076891 55.614336,32.137749 63.904129,32.137701 C 72.19383,32.137749 80.555649,33.076891 88.989611,34.955129 L 87.471685,42.041723 C 78.555284,39.969324 70.120658,38.933106 62.167781,38.933065 C 56.674088,38.933106 50.577388,39.486883 43.877663,40.594399 L 42.503146,46.95733 L 86.459,46.95733 L 82.339862,66.260134 z M 107.31503,46.811715 L 122.20967,46.811715 C 130.78767,46.811748 138.13754,46.595533 144.2593,46.163067 L 145.4154,40.667206 C 139.00534,39.511152 132.8601,38.933106 126.97966,38.933065 C 121.48597,38.933106 115.38927,39.486883 108.68954,40.594399 L 107.31503,46.811715 z M 89.891981,46.811715 L 100.23064,46.811715 L 102.76125,34.955129 C 111.77464,33.076891 120.42622,32.137749 128.71601,32.137701 C 137.00571,32.137749 145.36753,33.076891 153.80149,34.955129 L 152.28357,42.041723 L 152.21076,42.041723 L 150.04198,52.234768 C 139.87241,53.343822 130.11254,53.898335 120.76235,53.898308 L 105.86991,53.898308 L 102.61784,69.006961 L 95.53125,69.006961 L 98.785523,53.898308 L 88.446863,53.898308 L 89.891981,46.811715 z M 170.192,32.137701 L 177.27639,32.137701 L 169.39553,69.006961 L 162.31114,69.006961 L 170.192,32.137701 z M 233.07558,60.548057 L 237.26974,40.667206 C 230.85968,39.511152 224.69017,38.933106 218.7612,38.933065 C 217.55652,38.933106 213.38738,38.836765 206.25376,38.644041 L 200.90572,38.498426 L 195.84449,62.13879 L 188.76011,62.13879 L 214.78547,62.211597 C 220.28055,62.211616 226.37725,61.657103 233.07558,60.548057 L 233.07558,60.548057 z M 238.93328,66.187326 C 229.96834,68.067095 221.34103,69.006972 213.05133,69.006961 L 187.31278,69.006961 L 195.19364,32.137701 L 220.49754,32.137701 C 228.78724,32.137749 237.14906,33.076891 245.58303,34.955129 L 238.93328,66.187326 z M 251.82903,46.811715 L 265.34916,46.811715 L 267.29952,37.631355 L 267.37233,37.631355 L 268.3122,33.366603 C 275.73412,32.547383 284.94021,32.137749 295.9305,32.137701 C 306.43677,32.137749 315.11189,32.570916 321.95586,33.437204 L 320.43794,40.594399 C 311.13616,39.341269 301.68958,38.714684 292.09818,38.714642 C 285.54252,38.714684 279.49363,39.027976 273.95147,39.65452 L 272.43355,46.811715 L 307.49586,46.811715 L 306.05074,53.898308 L 270.98843,53.898308 L 269.3977,61.126104 C 274.84425,61.752708 280.82034,62.066001 287.32598,62.065983 C 296.91739,62.066001 306.46031,61.439416 315.95476,60.186226 L 314.43684,67.345627 C 307.2075,68.453195 298.41178,69.006972 288.04965,69.006961 C 277.20497,69.006972 268.21583,68.453195 261.0822,67.345627 L 262.16769,62.357212 L 262.09489,62.357212 L 263.90184,53.898308 L 250.38392,53.898308 L 251.82903,46.811715 z M 379.80249,52.018552 C 381.82633,52.933453 383.34425,53.824792 384.35627,54.692572 L 381.32042,69.006961 L 374.23382,69.006961 L 376.62103,57.946845 C 371.27146,55.440528 364.86073,54.13882 357.38882,54.041717 L 340.68944,53.825501 L 337.43737,69.006961 L 330.35078,69.006961 L 337.58078,34.955129 C 346.59417,33.076891 355.24574,32.137749 363.53554,32.137701 C 371.82524,32.137749 380.18706,33.076891 388.62102,34.955129 L 387.10309,42.041723 L 387.03029,42.041723 L 385.07993,51.440505 L 379.80249,52.018552 z M 342.20736,46.741114 L 362.30664,46.811715 C 366.45146,46.811748 372.08999,46.354312 379.22224,45.439405 L 380.23492,40.667206 C 373.82487,39.511152 367.67963,38.933106 361.79919,38.933065 C 356.3055,38.933106 350.2088,39.486883 343.50907,40.594399 L 342.20736,46.741114 z M 409.61523,46.595499 L 447.56998,46.595499 L 445.03937,52.089153 L 407.08462,52.089153 L 409.61523,46.595499 z M 496.15243,28.883428 L 503.23903,28.883428 L 502.51536,32.208302 C 509.60043,32.449571 516.73335,33.365179 523.91414,34.955129 L 516.68414,69.152576 L 509.59975,69.152576 L 515.60085,40.667206 C 510.63665,39.752373 505.79312,39.19786 501.07025,39.003666 L 495.43098,65.825495 L 488.34438,65.825495 L 493.98365,39.003666 C 489.35777,39.149322 484.29729,39.679566 478.80219,40.594399 L 472.73049,69.152576 L 465.6439,69.152576 L 472.8739,34.955129 C 480.63412,33.316641 488.15314,32.401032 495.43098,32.208302 L 496.15243,28.883428 z M 548.3951,40.594399 L 547.02279,46.811715 L 583.89205,46.811715 L 585.19376,40.667206 C 578.7837,39.511152 572.61493,38.933106 566.68742,38.933065 C 561.24079,38.933106 555.14336,39.486883 548.3951,40.594399 L 548.3951,40.594399 z M 586.27925,69.006961 L 579.19266,69.006961 L 582.37412,54.041717 L 545.50486,54.041717 L 542.3234,69.006961 L 535.23901,69.006961 L 542.46681,34.955129 C 551.48019,33.076891 560.13177,32.137749 568.42156,32.137701 C 576.71126,32.137749 585.07381,33.076891 593.50925,34.955129 L 586.27925,69.006961 z M 620.00674,34.955129 C 622.51306,34.425666 624.99513,33.96823 627.45296,33.582819 C 627.55001,33.582866 627.59855,33.630668 627.59858,33.726228 C 627.59855,33.918956 627.53824,34.220482 627.41766,34.630805 C 627.29702,35.04122 627.23672,35.342745 627.23675,35.535383 C 627.23672,35.631033 627.26099,35.678836 627.30955,35.678791 C 627.64635,34.956646 628.05598,34.23372 628.53845,33.510011 C 635.04402,32.595185 640.8517,32.137749 645.9615,32.137701 C 654.2512,32.137749 662.61302,33.076891 671.04698,34.955129 L 663.81698,69.152576 L 656.73259,69.152576 L 662.73369,40.667206 C 656.32364,39.511152 650.15413,38.933106 644.22515,38.933065 C 638.73146,38.933106 632.63476,39.486883 625.93504,40.594399 L 619.86333,69.152576 L 612.77674,69.152576 L 620.00674,34.955129 z M 718.06517,46.95733 L 762.02102,46.95733 L 763.39333,40.594399 C 757.12742,39.486883 751.27194,38.933106 745.82688,38.933065 C 737.87391,38.933106 728.95684,39.969324 719.07565,42.041723 L 720.59578,34.955129 C 729.89746,33.076891 738.69318,32.137749 746.98297,32.137701 C 755.27267,32.137749 763.49035,33.076891 771.63602,34.955129 L 767.58748,54.041717 L 723.63163,54.041717 L 722.25711,60.620865 C 728.4744,61.778448 734.33062,62.35723 739.82578,62.357212 C 747.77866,62.35723 756.67072,61.296743 766.50199,59.175747 L 764.98407,66.260134 C 755.73084,68.139902 746.95939,69.07978 738.66968,69.079769 C 730.37843,69.07978 722.13648,68.139902 713.94383,66.260134 L 718.06517,46.95733 z"
       id="text2396"
       style="font-size:72.29560852px;font-style:normal;font-variant:normal;font-weight:normal;font-stretch:normal;text-align:start;line-height:100%;writing-mode:lr-tb;text-anchor:start;fill:#000000;fill-opacity:1;stroke:none;stroke-width:1px;stroke-linecap:butt;stroke-linejoin:miter;stroke-opacity:1;font-family:Homoarakhn;-inkscape-font-specification:Homoarakhn" />
  </g>
</svg>
